<svg width="20" height="20" viewBox="0 0 20 20" fill="none" xmlns="http://www.w3.org/2000/svg">
<path d="M0.294312 2.06213H19.7061V17.9423H0.294312V2.06213Z" fill="#E08EA2"/>
<path d="M1.15702 17.0339V2.06213H0.294312V17.9423H19.7061V17.0339H1.15702Z" fill="#D15573"/>
<path d="M1.47211 3.22913V13.8164H11.9789L13.3514 12.64H14.9983L16.7628 10.8755H18.5274V3.22913H1.47211Z" fill="#9EB6F4"/>
<path d="M16.4883 9.94788L14.6846 11.7516H13.0899L11.7175 12.9281H2.36046V3.22913H1.47211V13.8164H11.9789L13.3514 12.64H14.9983L16.7628 10.8755H18.5274L18.5666 9.94788H16.4883Z" fill="#3D6DEA"/>
<path d="M1.47211 16.7329V13.8181H11.9789L13.3514 12.6417H14.9983L16.7628 10.8772H18.5274V16.7329H1.47211Z" fill="#C09FDE"/>
<path d="M15.8797 11.7667L16.7685 10.8778H16.7629L15.8741 11.7667H15.8797Z" fill="#F0B582"/>
<path d="M2.353 15.8575V13.8184H1.47174V16.7332H18.5271V15.8575H2.353Z" fill="#A070CE"/>
<path d="M8.21525 14.6794V10.5621L7.62707 9.69941H7.03888V12.0129H6.7644L5.58799 8.79753V5.26842L4.64693 4.38611H4.41166V7.34017L3.82348 7.92835V11.7385L3.23529 12.5619V16.7315H9.11718V15.5813L8.21525 14.6794Z" fill="#72869E"/>
<path d="M4.1376 15.8283V12.914L4.72579 12.0905V8.20849L5.31397 7.62031V5.01026L4.64736 4.38525H4.41209V7.33931L3.8239 7.9275V11.7376L3.23572 12.5611V16.7307H9.1176V15.8283H4.1376Z" fill="#536275"/>
<path d="M7.15002 12.3267H7.94078V10.1596L7.62708 9.69946H7.15002V12.3267Z" fill="#536275"/>
<path d="M16.4303 6.7414H15.2539L14.9795 6.42774V5.25138L15.2539 4.97693H16.1559V5.54543H16.744V6.42774L16.4303 6.7414Z" fill="#F8E868"/>
<path d="M2.3526 8.79883H2.94078V9.38701H2.3526V8.79883Z" fill="white"/>
<path d="M7.05847 7.0354H7.64666V7.62358H7.05847V7.0354Z" fill="white"/>
<path d="M13.5279 4.09106H14.1161V4.67925H13.5279V4.09106Z" fill="white"/>
<path d="M17.0184 7.62207H17.6066V8.21025H17.0184V7.62207Z" fill="white"/>
<path d="M9.95959 12.3257H10.5478V12.9139H9.95959V12.3257Z" fill="white"/>
<path d="M19.4118 15.2673H20V15.8555H19.4118V15.2673Z" fill="black"/>
<path d="M0 1.76575V18.2341H20V16.4438H19.4118V17.6459H0.588185V2.35393H19.4118V14.6792H20V1.76575H0Z" fill="black"/>
<path d="M2.92109 3.52337V2.93518H1.17822V17.0255H18.8217V2.93518H4.68565V3.52337H18.2335V9.37906H16.4493V9.96724H18.2335V10.5816H16.6412L14.8767 12.3461H13.2428L11.8704 13.5225H8.50885V10.4712L7.78201 9.40513H6.74429V11.1032L5.88158 8.74523V5.14083L4.7627 4.09186H4.11703V5.44516L3.09523 6.44456H2.74601L1.76641 5.49649V3.52333H2.92109V3.52337ZM12.0879 14.1106L13.4604 12.9342H15.1203L16.8849 11.1697H18.2336V16.4372H9.41081V15.4592L8.50888 14.5574V14.1106H12.0879V14.1106ZM4.70521 4.84423L5.2934 5.39567V8.84949L6.55835 12.3069H7.33248V9.99336H7.47113L7.92066 10.6526V14.801L8.82258 15.7029V16.4373H3.52888V15.2674H2.9407V16.4373H1.76641V14.1106H2.9407V14.6792H3.52888V12.656L4.11703 11.8325V8.04999L4.70521 7.46181V4.84423ZM2.50799 7.03279H3.33513L4.11703 6.26795V7.21822L3.52884 7.80641V11.6441L2.9407 12.4675V13.5225H1.76641V6.31505L2.50799 7.03279Z" fill="black"/>
<path d="M3.50928 2.93518H4.09746V3.52337H3.50928V2.93518Z" fill="black"/>
<path d="M15.1316 4.68018L14.6849 5.12692V6.53558L15.12 7.03284H16.5516L17.0376 6.54688V5.24868H16.4495V4.68018H15.1316ZM16.4494 6.30325L16.308 6.44461H15.3869L15.2731 6.31454V5.37051L15.3752 5.26832H15.8613V5.83682H16.4494V6.30325H16.4494Z" fill="black"/>
<path d="M6.45026 5.27478V5.86296H11.897L12.9203 7.13635V8.67747L11.9143 9.70585H9.87557L9.09709 8.69707V7.73767L9.77864 7.01408L11.1005 7.02506L11.7244 7.73218V8.2288H10.5609V7.62101H9.97274V8.81698H12.3125V7.5098L11.3679 6.43911L9.52658 6.42378L8.5089 7.50431V8.89764L9.58654 10.294H12.1617L13.5085 8.91729V6.9293L12.179 5.27478H6.45026Z" fill="black"/>
<path d="M12.7961 10.8559H9.39111V11.4441H13.0444L14.4822 9.96709H15.8611V9.37891H14.2339L12.7961 10.8559Z" fill="black"/>
</svg>
