<svg width="20" height="20" viewBox="0 0 20 20" fill="none" xmlns="http://www.w3.org/2000/svg">
<path d="M18.1583 17.3L17.5583 16.7C17.8666 16.2334 18.05 15.6667 18.05 15.0667C18.05 13.4167 16.7166 12.0834 15.0666 12.0834C13.4166 12.0834 12.0833 13.4167 12.0833 15.0667C12.0833 16.7167 13.4166 18.05 15.0666 18.05C15.675 18.05 16.2333 17.8667 16.7 17.5584L17.3 18.1584C17.4166 18.275 17.575 18.3334 17.725 18.3334C17.8833 18.3334 18.0333 18.275 18.15 18.1584C18.3916 17.9167 18.3916 17.5334 18.1583 17.3Z" fill="#374151"/>
<path d="M1.69147 12.1908C1.69147 12.2158 1.6748 12.2491 1.6748 12.2741C2.44147 13.8075 3.69147 15.0658 5.2248 15.8241C5.2498 15.8241 5.28314 15.8075 5.30814 15.8075C5.0248 14.8408 4.80814 13.8491 4.6498 12.8575C3.6498 12.6908 2.65814 12.4741 1.69147 12.1908Z" fill="#374151"/>
<path d="M15.8918 5.35946C15.1084 3.7178 13.7834 2.3928 12.1501 1.6178C12.4501 2.60946 12.7001 3.62613 12.8668 4.6428C13.8834 4.80946 14.9001 5.05113 15.8918 5.35946Z" fill="#374151"/>
<path d="M1.60846 5.35798C2.60846 5.05798 3.62513 4.80798 4.64179 4.64132C4.80846 3.64965 5.01679 2.66632 5.30013 1.69965C5.27513 1.69965 5.24179 1.68298 5.21679 1.68298C3.65013 2.45798 2.37513 3.76632 1.60846 5.35798Z" fill="#374151"/>
<path d="M11.5167 4.46671C11.3167 3.38337 11.0667 2.30004 10.7083 1.25004C10.6917 1.19171 10.6917 1.14171 10.6833 1.07504C10.0667 0.925041 9.41667 0.833374 8.75 0.833374C8.075 0.833374 7.43334 0.925041 6.80834 1.08337C6.8 1.14171 6.80834 1.19171 6.79167 1.25837C6.44167 2.30837 6.18334 3.38337 5.98334 4.46671C7.825 4.26671 9.675 4.26671 11.5167 4.46671Z" fill="#374151"/>
<path d="M4.46665 5.98303C3.37498 6.18303 2.30831 6.44137 1.24998 6.79137C1.19165 6.80803 1.14165 6.80803 1.08331 6.81637C0.92498 7.43303 0.833313 8.08303 0.833313 8.7497C0.833313 9.4247 0.92498 10.0664 1.08331 10.6914C1.14165 10.6997 1.19165 10.6914 1.25831 10.708C2.30831 11.058 3.38331 11.3164 4.47498 11.5164C4.26665 9.6747 4.26665 7.8247 4.46665 5.98303Z" fill="#374151"/>
<path d="M16.4166 6.81637C16.3582 6.81637 16.3082 6.80803 16.2416 6.79137C15.1916 6.44137 14.1082 6.18303 13.0249 5.98303C13.2332 7.8247 13.2332 9.6747 13.0249 11.508C14.1082 11.308 15.1916 11.058 16.2416 10.6997C16.2999 10.683 16.3499 10.6914 16.4166 10.683C16.5666 10.058 16.6666 9.41637 16.6666 8.74137C16.6666 8.08303 16.5749 7.44137 16.4166 6.81637Z" fill="#374151"/>
<path d="M5.98346 13.0324C6.18346 14.124 6.43346 15.199 6.79179 16.249C6.80846 16.3074 6.80013 16.3574 6.80846 16.424C7.43346 16.574 8.07513 16.6657 8.75013 16.6657C9.41679 16.6657 10.0668 16.574 10.6835 16.4157C10.6918 16.3574 10.6918 16.3074 10.7085 16.2407C11.0585 15.1907 11.3168 14.1157 11.5168 13.024C10.6001 13.124 9.67513 13.199 8.75013 13.199C7.82513 13.199 6.90013 13.1324 5.98346 13.0324Z" fill="#374151"/>
<path d="M5.79175 5.79297C5.54175 7.75964 5.54175 9.74297 5.79175 11.718C7.75841 11.968 9.74175 11.968 11.7167 11.718C11.9667 9.7513 11.9667 7.76797 11.7167 5.79297C9.74175 5.54297 7.75841 5.54297 5.79175 5.79297Z" fill="#374151"/>
</svg>
