<svg width="20" height="20" viewBox="0 0 20 20" fill="none" xmlns="http://www.w3.org/2000/svg">
<path d="M12.9917 10.3333V13.725C12.9917 14.025 12.9584 14.3083 12.8834 14.5667C12.575 15.7917 11.5584 16.5583 10.1584 16.5583H7.89169L5.37502 18.2333C5.00002 18.4917 4.50002 18.2167 4.50002 17.7667V16.5583C3.65002 16.5583 2.94169 16.275 2.45002 15.7833C1.95002 15.2833 1.66669 14.575 1.66669 13.725V10.3333C1.66669 8.75 2.65002 7.65833 4.16669 7.51667C4.27502 7.50833 4.38335 7.5 4.50002 7.5H10.1584C11.8584 7.5 12.9917 8.63333 12.9917 10.3333Z" fill="#374151"/>
<path d="M14.7917 13C15.85 13 16.7417 12.65 17.3584 12.025C17.9834 11.4083 18.3334 10.5166 18.3334 9.45829V5.20829C18.3334 3.24996 16.75 1.66663 14.7917 1.66663H7.70835C5.75002 1.66663 4.16669 3.24996 4.16669 5.20829V5.83329C4.16669 6.06663 4.35002 6.24996 4.58335 6.24996H10.1584C12.4167 6.24996 14.2417 8.07496 14.2417 10.3333V12.5833C14.2417 12.8166 14.425 13 14.6584 13H14.7917Z" fill="#374151"/>
</svg>
