<svg width="20" height="20" viewBox="0 0 20 20" fill="none" xmlns="http://www.w3.org/2000/svg">
<path d="M2.29152 15.5423C1.94985 15.5423 1.66652 15.259 1.66652 14.9173V10.1673C1.62485 7.90898 2.46652 5.77565 4.03318 4.17565C5.59985 2.58398 7.69985 1.70898 9.95818 1.70898C14.5748 1.70898 18.3332 5.46732 18.3332 10.084V14.834C18.3332 15.1757 18.0499 15.459 17.7082 15.459C17.3665 15.459 17.0832 15.1757 17.0832 14.834V10.084C17.0832 6.15898 13.8915 2.95898 9.95818 2.95898C8.03318 2.95898 6.24985 3.70065 4.92485 5.05065C3.59152 6.40898 2.88318 8.21732 2.91652 10.1507V14.909C2.91652 15.259 2.64152 15.5423 2.29152 15.5423Z" fill="#374151"/>
<path d="M4.95002 10.3744H4.84169C3.09169 10.3744 1.66669 11.7994 1.66669 13.5494V15.1161C1.66669 16.8661 3.09169 18.2911 4.84169 18.2911H4.95002C6.70002 18.2911 8.12502 16.8661 8.12502 15.1161V13.5494C8.12502 11.7994 6.70002 10.3744 4.95002 10.3744Z" fill="#374151"/>
<path d="M15.1583 10.3744H15.05C13.3 10.3744 11.875 11.7994 11.875 13.5494V15.1161C11.875 16.8661 13.3 18.2911 15.05 18.2911H15.1583C16.9083 18.2911 18.3333 16.8661 18.3333 15.1161V13.5494C18.3333 11.7994 16.9083 10.3744 15.1583 10.3744Z" fill="#374151"/>
</svg>
